<?xml version="1.0" encoding="utf-8"?>
<!-- Generator: Adobe Illustrator 16.0.4, SVG Export Plug-In . SVG Version: 6.00 Build 0)  -->
<!DOCTYPE svg PUBLIC "-//W3C//DTD SVG 1.1//EN" "http://www.w3.org/Graphics/SVG/1.1/DTD/svg11.dtd">
<svg version="1.1" id="Layer_1" xmlns="http://www.w3.org/2000/svg" xmlns:xlink="http://www.w3.org/1999/xlink" x="0px" y="0px"
	 width="1206px" height="931.909px" viewBox="0 0 1206 931.909" enable-background="new 0 0 1206 931.909" xml:space="preserve">
<g>
	<defs>
		<rect id="SVGID_1_" x="-461.234" y="-364.033" width="2045.234" height="1569.065"/>
	</defs>
	<clipPath id="SVGID_2_">
		<use xlink:href="#SVGID_1_"  overflow="visible"/>
	</clipPath>
	<path clip-path="url(#SVGID_2_)" fill="#E11383" d="M264.296,468.718c-34.446-11.479-73.589-13.569-90.819-20.875
		c-5.735-2.611-11.991-6.272-11.991-14.097c0-17.746,16.697-20.88,31.3-20.88c8.357,0,16.711,2.617,22.97,7.831
		c6.783,4.701,11.489,11.489,12.002,20.362h93.952c-2.605-69.421-73.072-85.596-131.527-85.596
		c-54.284,0-127.875,17.736-127.875,86.108c0,46.456,31.843,71.511,110.655,85.082c48.015,8.354,56.887,13.052,56.887,28.703
		c0,15.666-21.404,20.883-34.964,20.883c-12.537,0-22.455-3.137-27.666-7.825c-7.835-6.788-12.002-14.624-12.531-24.015H56.042
		c1.577,69.942,71.511,95.513,135.186,95.513c65.768,0,137.794-20.354,137.794-95.513
		C329.021,500.034,298.745,479.68,264.296,468.718"/>
	<path clip-path="url(#SVGID_2_)" fill="#E11383" d="M538.541,355.457c-43.837,0-66.802,15.14-84.553,36.02h-1.04V260.462h-103.34
		v372.659h103.34v-143c0-43.329,23.497-52.191,41.229-52.191c30.271,0,33.933,21.909,33.933,53.225v141.966h103.334V447.316
		C631.445,385.21,587.082,355.457,538.541,355.457"/>
	<path clip-path="url(#SVGID_2_)" fill="#E11383" d="M834.669,355.457c-50.627,0-66.283,19.309-79.341,36.539h-1.027v-29.75h-99.7
		v360.483l103.346-29.645v-89.702h1.048c15.655,22.973,43.316,36.528,74.119,36.528c90.817,0,115.346-77.243,115.346-140.929
		C948.459,431.14,911.396,355.457,834.669,355.457 M799.697,564.756c-37.058,0-45.396-34.972-45.396-66.812
		c0-32.359,8.338-67.326,45.396-67.326c37.062,0,45.421,34.967,45.421,67.326C845.118,529.784,836.759,564.756,799.697,564.756"/>
	<path clip-path="url(#SVGID_2_)" fill="#E11383" d="M1145.209,355.461c-37.581,0-59.507,17.746-76.199,50.102h-1.047v-43.318
		h-99.161v270.384l103.34-29.698v-76.803c0-57.926,21.925-81.941,62.622-81.941c20.894,0,30.278,3.135,40.718,6.785v-91.333
		C1165.568,357.023,1155.658,355.461,1145.209,355.461"/>
</g>
</svg>
